# This file uses centimeters as units for non-parametric coordinates.

mtllib CRYSTALHEART.mtl
g default
v -0.553646 12.812572 0.065452
v -1.083225 12.355300 0.068774
v -1.817012 10.848710 0.062530
v 0.553646 12.812572 0.065452
v 1.083225 12.355300 0.068774
v 1.817012 10.848710 0.062530
v -0.553646 -0.897848 0.054224
v -1.083225 -0.231850 0.044496
v -1.817012 2.250700 0.020927
v 0.553646 -0.897848 0.054224
v 1.083225 -0.231850 0.044496
v 1.817012 2.250700 0.020927
v -1.817012 3.090794 1.247115
v -1.083225 1.282634 1.884910
v -0.553646 0.826152 2.060869
v 0.553646 0.826152 2.060869
v 1.083225 1.282634 1.884910
v 1.817012 3.090794 1.247115
v 0.553646 15.164522 1.757805
v 1.083225 14.551223 1.681257
v 1.817012 12.635535 1.678023
v -0.553646 15.164522 1.757805
v -1.083225 14.551223 1.681257
v -1.817012 12.635535 1.678023
v -1.817012 12.635535 -1.678023
v -1.083225 14.551223 -1.681257
v -0.553646 15.164522 -1.757805
v 0.553646 15.164522 -1.757805
v 1.083225 14.551223 -1.681257
v 1.817012 12.635535 -1.678023
v 0.553646 0.826152 -2.060869
v 1.083225 1.282634 -1.884910
v 1.817012 3.090794 -1.247115
v -0.553646 0.826152 -2.060869
v -1.083225 1.282634 -1.884910
v -1.817012 3.090794 -1.247115
v -1.817012 4.962881 3.155760
v -1.083225 3.659699 4.532234
v -0.553646 3.308170 4.900265
v 0.553646 3.308170 4.900265
v 1.083225 3.659699 4.532234
v 1.817012 4.962881 3.155760
v 0.553646 16.734488 4.483743
v 1.083225 16.102446 4.214975
v 1.817012 13.497265 3.632293
v -0.553646 16.734488 4.483743
v -1.083225 16.102446 4.214975
v -1.817012 13.497265 3.632293
v -1.817012 13.497265 -3.632293
v -1.083225 16.102446 -4.214975
v -0.553646 16.734488 -4.483743
v 0.553646 16.734488 -4.483743
v 1.083225 16.102446 -4.214975
v 1.817012 13.497265 -3.632293
v 0.553646 3.308170 -4.900265
v 1.083225 3.659699 -4.532234
v 1.817012 4.962881 -3.155760
v -0.553646 3.308170 -4.900265
v -1.083225 3.659699 -4.532234
v -1.817012 4.962881 -3.155760
v -1.817012 6.183033 4.439634
v -1.083225 5.357943 6.319168
v -0.553646 5.121403 6.808193
v 0.553646 5.121403 6.808193
v 1.083225 5.357943 6.319168
v 1.817012 6.183033 4.439634
v 0.553646 16.423540 6.895997
v 1.083225 15.818501 6.433749
v 1.817012 13.306038 4.805629
v -0.553646 16.423540 6.895997
v -1.083225 15.818501 6.433749
v -1.817012 13.306038 4.805629
v -1.817012 13.306038 -4.805629
v -1.083225 15.818501 -6.433749
v -0.553646 16.423540 -6.895997
v 0.553646 16.423540 -6.895997
v 1.083225 15.818501 -6.433749
v 1.817012 13.306038 -4.805629
v 0.553646 5.121403 -6.808193
v 1.083225 5.357943 -6.319168
v 1.817012 6.183033 -4.439634
v -0.553646 5.121403 -6.808193
v -1.083225 5.357943 -6.319168
v -1.817012 6.183033 -4.439634
v -1.817012 7.354806 5.408291
v -1.083225 7.004515 7.680321
v -0.553646 6.886310 8.267169
v 0.553646 6.886310 8.267169
v 1.083225 7.004515 7.680321
v 1.817012 7.354806 5.408291
v 0.553646 15.065130 8.286090
v 1.083225 14.578737 7.702425
v 1.817012 12.472358 5.701030
v -0.553646 15.065130 8.286090
v -1.083225 14.578737 7.702425
v -1.817012 12.472358 5.701030
v -1.817012 12.472358 -5.701030
v -1.083225 14.578737 -7.702425
v -0.553646 15.065130 -8.286090
v 0.553646 15.065130 -8.286090
v 1.083225 14.578737 -7.702425
v 1.817012 12.472358 -5.701030
v 0.553646 6.886310 -8.267169
v 1.083225 7.004515 -7.680321
v 1.817012 7.354806 -5.408291
v -0.553646 6.886310 -8.267169
v -1.083225 7.004515 -7.680321
v -1.817012 7.354806 -5.408291
v -1.817012 8.760786 6.212886
v -1.083225 9.004296 8.824729
v -0.553646 9.040239 9.499790
v 0.553646 9.040239 9.499790
v 1.083225 9.004296 8.824729
v 1.817012 8.760786 6.212886
v 1.817012 11.271305 6.258712
v 1.083225 12.635969 8.891176
v 0.553646 12.977877 9.571901
v 0.553646 11.093852 9.858037
v 1.083225 10.898153 9.155107
v 1.817012 10.069653 6.441213
v -0.553646 12.977877 9.571901
v -1.083225 12.635969 8.891176
v -1.817012 11.271305 6.258712
v -1.817012 10.069653 6.441213
v -1.083225 10.898153 9.155107
v -0.553646 11.093852 9.858037
v -1.817012 11.271305 -6.258712
v -1.083225 12.635969 -8.891176
v -0.553646 12.977877 -9.571901
v 0.553646 12.977877 -9.571901
v 1.083225 12.635969 -8.891176
v 1.817012 11.271305 -6.258712
v 1.817012 8.760786 -6.212886
v 1.083225 9.004296 -8.824729
v 0.553646 9.040239 -9.499790
v 1.817012 10.069652 -6.441213
v 1.083225 10.898153 -9.155107
v 0.553646 11.093851 -9.858037
v -0.553646 9.040239 -9.499790
v -1.083225 9.004296 -8.824729
v -1.817012 8.760786 -6.212886
v -0.553646 11.093851 -9.858037
v -1.083225 10.898153 -9.155107
v -1.817012 10.069652 -6.441213
v -0.029321 11.184582 10.139694
v -0.029321 13.122436 9.845385
v -0.029321 15.269323 8.522835
v -0.029321 16.666546 7.093025
v -0.029321 16.986378 4.611849
v -0.029321 15.371555 1.808028
v -0.029321 12.952408 0.067322
v -0.029321 15.371555 -1.808028
v -0.029321 16.986378 -4.611849
v -0.029321 16.666546 -7.093025
v -0.029321 15.269325 -8.522835
v -0.029321 13.122436 -9.845385
v -0.029321 11.184581 -10.139695
v -0.029321 9.072294 -9.771213
v -0.029321 6.856823 -8.503373
v -0.029321 5.041492 -7.002712
v -0.029321 3.176452 -5.040272
v -0.029321 0.623519 -2.119751
v -0.029321 -1.149738 0.055773
v -0.029321 0.623519 2.119751
v -0.029321 3.176452 5.040272
v -0.029321 5.041492 7.002712
v -0.029321 6.856823 8.503373
v -0.029321 9.072294 9.771213
vt 0.474990 0.142841
vt 0.525010 0.250000
vt 0.474990 0.363464
vt 0.474990 0.500000
vt 0.525010 0.607159
vt 0.525010 0.886536
vt 0.733146 0.214433
vt 0.525010 0.000000
vt 0.625000 0.242032
vt 0.474990 0.250000
vt 0.525010 0.500000
vt 0.474990 0.750000
vt 0.375000 0.507968
vt 0.474990 0.000000
vt 0.525010 0.000000
vt 0.625000 0.242147
vt 0.525010 0.250000
vt 0.474990 0.250000
vt 0.375000 0.242032
vt 0.474990 0.500000
vt 0.525010 0.500000
vt 0.625000 0.507968
vt 0.525010 0.750000
vt 0.474990 0.750000
vt 0.375000 0.507853
vt 0.474990 0.000000
vt 0.525010 0.000000
vt 0.625000 0.242147
vt 0.525010 0.250000
vt 0.474990 0.250000
vt 0.375000 0.242147
vt 0.474990 0.500000
vt 0.525010 0.500000
vt 0.625000 0.507853
vt 0.525010 0.750000
vt 0.474990 0.750000
vt 0.375000 0.507853
vt 0.474990 0.000000
vt 0.525010 0.000000
vt 0.625000 0.239070
vt 0.525010 0.250000
vt 0.474990 0.250000
vt 0.375000 0.242147
vt 0.474990 0.500000
vt 0.525010 0.500000
vt 0.625000 0.507853
vt 0.525010 0.750000
vt 0.474990 0.750000
vt 0.375000 0.510930
vt 0.474990 0.000000
vt 0.525010 0.000000
vt 0.625000 0.143091
vt 0.625000 0.225838
vt 0.525010 0.250000
vt 0.474990 0.250000
vt 0.375000 0.239070
vt 0.474990 0.500000
vt 0.525010 0.500000
vt 0.625000 0.510930
vt 0.525010 0.750000
vt 0.474990 0.750000
vt 0.375000 0.606909
vt 0.375000 0.524162
vt 0.525010 0.363464
vt 0.474990 0.886536
vt 0.266854 0.214433
vt 0.375000 0.006468
vt 0.375000 0.007996
vt 0.375000 0.010320
vt 0.375000 0.015624
vt 0.375000 0.143091
vt 0.375000 0.030103
vt 0.474990 0.000000
vt 0.525010 0.142841
vt 0.625000 0.015624
vt 0.625000 0.010320
vt 0.625000 0.007996
vt 0.625000 0.006468
vt 0.743520 0.005929
vt 0.625000 0.743532
vt 0.625000 0.742004
vt 0.625000 0.739680
vt 0.625000 0.734376
vt 0.625000 0.606909
vt 0.625000 0.719897
vt 0.474990 0.607159
vt 0.525010 0.750000
vt 0.375000 0.734376
vt 0.375000 0.739680
vt 0.375000 0.742004
vt 0.375000 0.743532
vt 0.256480 0.005929
vt 0.625000 0.030103
vt 0.375000 0.225838
vt 0.625000 0.524162
vt 0.375000 0.719897
vt 0.375000 0.363464
vt 0.261536 0.250000
vt 0.738464 0.250000
vt 0.625000 0.363464
vt 0.375000 0.886536
vt 0.261536 0.000000
vt 0.738464 0.000000
vt 0.625000 0.886536
vt 0.375000 0.000000
vt 0.625000 0.000000
vt 0.625000 0.250000
vt 0.375000 0.250000
vt 0.375000 0.500000
vt 0.625000 0.500000
vt 0.625000 0.750000
vt 0.375000 0.750000
vt 0.375000 0.000000
vt 0.625000 0.000000
vt 0.625000 0.250000
vt 0.375000 0.250000
vt 0.375000 0.500000
vt 0.625000 0.500000
vt 0.625000 0.750000
vt 0.375000 0.750000
vt 0.375000 0.000000
vt 0.625000 0.000000
vt 0.625000 0.250000
vt 0.375000 0.250000
vt 0.375000 0.500000
vt 0.625000 0.500000
vt 0.625000 0.750000
vt 0.375000 0.750000
vt 0.375000 0.000000
vt 0.625000 0.000000
vt 0.625000 0.250000
vt 0.375000 0.250000
vt 0.375000 0.500000
vt 0.625000 0.500000
vt 0.625000 0.750000
vt 0.375000 0.750000
vt 0.375000 0.000000
vt 0.625000 0.000000
vt 0.625000 0.250000
vt 0.625000 0.142841
vt 0.375000 0.250000
vt 0.375000 0.142841
vt 0.375000 0.500000
vt 0.625000 0.500000
vt 0.625000 0.750000
vt 0.625000 0.607159
vt 0.375000 0.750000
vt 0.375000 0.607159
vt 0.497968 0.142841
vt 0.497968 0.250000
vt 0.497968 0.250000
vt 0.497968 0.250000
vt 0.497968 0.250000
vt 0.497968 0.250000
vt 0.497968 0.363464
vt 0.497968 0.500000
vt 0.497968 0.500000
vt 0.497968 0.500000
vt 0.497968 0.500000
vt 0.497968 0.500000
vt 0.497968 0.607159
vt 0.497968 0.750000
vt 0.497968 0.750000
vt 0.497968 0.750000
vt 0.497968 0.750000
vt 0.497968 0.750000
vt 0.497968 0.886536
vt 0.497968 0.000000
vt 0.497968 0.000000
vt 0.497968 0.000000
vt 0.497969 0.000000
vt 0.497968 0.000000
vn -0.930594 -0.279202 0.236729
vn -0.993685 -0.084181 0.074194
vn -0.993029 -0.117870 -0.000067
vn -0.955788 -0.294057 -0.000454
vn -0.488759 -0.663721 0.566207
vn -0.532443 -0.639693 0.554344
vn -0.675366 -0.556236 0.484234
vn -0.678513 -0.561978 0.473077
vn 0.675365 -0.556236 0.484234
vn 0.511033 -0.649564 0.562949
vn 0.464058 -0.673784 0.575034
vn 0.678513 -0.561978 0.473077
vn 0.993029 -0.117870 -0.000067
vn 0.993685 -0.084181 0.074194
vn 0.930594 -0.279202 0.236729
vn 0.955788 -0.294057 -0.000454
vn -0.916070 0.333186 0.223166
vn -0.993234 0.086267 0.077739
vn -0.999502 0.031544 0.000809
vn -0.838457 0.359195 0.409840
vn -0.375736 0.570643 0.730198
vn -0.275597 0.590444 0.758566
vn -0.492032 0.537858 0.684554
vn -0.492032 0.537858 0.684554
vn 0.492032 0.537858 0.684554
vn 0.258283 0.593298 0.762422
vn 0.360614 0.574191 0.735025
vn 0.492032 0.537858 0.684554
vn 0.999502 0.031544 0.000809
vn 0.993234 0.086267 0.077739
vn 0.916070 0.333186 0.223166
vn 0.838457 0.359195 0.409840
vn 0.990804 0.079525 0.109472
vn 0.970012 0.148466 0.192442
vn 0.969196 0.087210 0.230333
vn 0.986168 0.053237 0.156964
vn 0.820904 0.349085 0.451948
vn 0.680769 0.448873 0.578849
vn 0.673448 0.272783 0.687065
vn 0.819046 0.205075 0.535825
vn 0.987257 -0.093072 -0.129079
vn 0.943757 -0.180605 -0.276956
vn 0.956774 -0.088470 -0.277050
vn 0.979493 -0.079171 -0.185272
vn 0.718356 -0.402957 -0.567089
vn 0.557343 -0.468403 -0.685542
vn 0.595142 -0.280752 -0.752984
vn 0.755071 -0.250969 -0.605709
vn -0.666202 -0.011168 0.745688
vn 0.001023 -0.002118 0.999997
vn 0.001324 0.376131 0.926565
vn -0.694774 0.265514 0.668425
vn -0.000869 0.612676 0.790334
vn 0.002040 0.612675 0.790333
vn -0.694774 0.265514 -0.668425
vn 0.001324 0.376131 -0.926566
vn 0.001023 -0.002118 -0.999997
vn -0.666202 -0.011168 -0.745687
vn 0.000294 -0.763363 -0.645970
vn 0.003231 -0.775125 -0.631800
vn -0.490901 -0.676967 -0.548391
vn -0.532942 -0.645425 -0.547175
vn 0.993936 -0.082988 -0.072145
vn 0.003262 -0.758502 0.651663
vn 0.000286 -0.755480 0.655171
vn 0.993078 0.085312 -0.080730
vn -0.258130 0.565360 -0.783414
vn 0.001917 0.584065 -0.811705
vn -0.000835 0.584066 -0.811706
vn -0.359206 0.547216 -0.755994
vn -0.993078 0.085312 -0.080730
vn -0.993936 -0.082988 -0.072145
vn 0.000118 -0.741314 0.671159
vn -0.539559 -0.623246 0.566075
vn 0.993398 0.109753 -0.033400
vn 0.995412 -0.069731 0.065517
vn 0.001015 0.984429 -0.175777
vn -0.001808 0.866554 -0.499080
vn -0.530507 0.731220 -0.428812
vn -0.576391 0.796244 -0.183765
vn -0.993398 0.109754 -0.033400
vn -0.995412 -0.069731 0.065517
vn -0.530507 0.731220 0.428812
vn -0.001808 0.866554 0.499080
vn 0.001014 0.984429 0.175777
vn -0.576391 0.796244 0.183765
vn 0.993398 0.109754 0.033400
vn 0.995412 -0.069731 -0.065517
vn 0.000118 -0.741314 -0.671159
vn -0.539559 -0.623246 -0.566075
vn -0.993398 0.109753 0.033400
vn -0.995412 -0.069731 -0.065517
vn 0.000281 -0.681730 0.731604
vn -0.552799 -0.570197 0.607691
vn 0.993815 0.101841 0.044280
vn 0.992421 -0.085250 0.088500
vn 0.003947 0.991786 0.127844
vn -0.616620 0.780818 0.100519
vn -0.993815 0.101841 0.044280
vn -0.992421 -0.085250 0.088500
vn 0.003947 0.991786 -0.127844
vn -0.616620 0.780818 -0.100519
vn 0.993815 0.101841 -0.044280
vn 0.992421 -0.085250 -0.088500
vn 0.000281 -0.681730 -0.731604
vn -0.552799 -0.570197 -0.607691
vn -0.993815 0.101841 -0.044280
vn -0.992421 -0.085250 -0.088500
vn 0.000174 -0.557783 0.829987
vn -0.578976 -0.459825 0.673311
vn 0.987257 -0.093072 0.129079
vn 0.000934 0.614514 0.788905
vn 0.000675 0.715210 0.698909
vn -0.700174 0.510640 0.499002
vn -0.701588 0.436656 0.563121
vn -0.990804 0.079525 0.109472
vn -0.987257 -0.093072 0.129079
vn -0.700175 0.510640 -0.499002
vn 0.000675 0.715210 -0.698909
vn 0.000934 0.614514 -0.788905
vn -0.701588 0.436656 -0.563121
vn 0.990804 0.079525 -0.109472
vn 0.000174 -0.557783 -0.829987
vn -0.578976 -0.459825 -0.673311
vn -0.990804 0.079525 -0.109472
vn -0.987257 -0.093072 -0.129079
vn 0.000913 -0.332007 0.943277
vn -0.617513 -0.274422 0.737137
vn 0.984854 -0.007981 0.173204
vn 0.979493 -0.079171 0.185272
vn -0.984854 -0.007981 0.173204
vn -0.986168 0.053237 0.156964
vn -0.979493 -0.079171 0.185272
vn 0.984854 -0.007981 -0.173204
vn 0.986168 0.053237 -0.156964
vn 0.000913 -0.332007 -0.943277
vn -0.617513 -0.274422 -0.737137
vn -0.986168 0.053237 -0.156964
vn -0.984854 -0.007981 -0.173204
vn -0.979493 -0.079171 -0.185272
vn -0.916124 0.332141 -0.224496
vn -0.825621 0.355265 -0.438333
vn -0.473963 0.517634 -0.712330
vn -0.473963 0.517634 -0.712330
vn -0.930900 -0.281041 -0.233328
vn -0.679185 -0.572933 -0.458755
vn -0.675724 -0.560214 -0.479122
vn -0.929793 -0.268178 0.252123
vn -0.681378 -0.541120 0.492863
vn 0.681378 -0.541120 0.492863
vn 0.518327 -0.633103 0.574906
vn 0.929793 -0.268178 0.252123
vn 0.825621 0.355265 -0.438334
vn 0.916124 0.332141 -0.224496
vn 0.344555 0.550341 -0.760531
vn 0.241684 0.567777 -0.786905
vn 0.473963 0.517634 -0.712330
vn 0.473963 0.517634 -0.712330
vn -0.645325 0.656945 -0.389845
vn -0.713348 0.662505 -0.228521
vn -0.957915 0.284628 -0.037229
vn -0.957915 0.284628 0.037229
vn -0.645325 0.656945 0.389845
vn -0.713348 0.662505 0.228521
vn 0.512372 0.740950 0.434128
vn 0.645325 0.656945 0.389845
vn 0.713348 0.662505 0.228521
vn 0.553316 0.811387 0.188395
vn 0.957915 0.284628 0.037229
vn 0.930900 -0.281041 -0.233328
vn 0.466120 -0.687361 -0.557016
vn 0.511499 -0.655415 -0.555697
vn 0.675724 -0.560214 -0.479122
vn 0.679185 -0.572933 -0.458755
vn -0.681378 -0.541120 -0.492863
vn -0.929793 -0.268178 -0.252123
vn -0.935489 -0.238925 0.260338
vn -0.698517 -0.494480 0.517266
vn 0.698517 -0.494480 0.517266
vn 0.531213 -0.579792 0.617782
vn 0.935489 -0.238925 0.260338
vn 0.957915 0.284628 -0.037229
vn 0.645325 0.656945 -0.389845
vn 0.512372 0.740950 -0.434128
vn 0.553316 0.811387 -0.188395
vn 0.713348 0.662505 -0.228521
vn -0.779990 0.620692 0.079732
vn -0.970457 0.216082 0.107342
vn -0.970457 0.216082 -0.107342
vn -0.779990 0.620692 -0.079732
vn 0.779990 0.620692 -0.079732
vn 0.591728 0.799538 -0.102937
vn 0.970457 0.216082 -0.107342
vn 0.929793 -0.268178 -0.252123
vn 0.518327 -0.633103 -0.574906
vn 0.681378 -0.541120 -0.492863
vn -0.698517 -0.494480 -0.517266
vn -0.935489 -0.238925 -0.260338
vn -0.943757 -0.180605 0.276956
vn -0.718356 -0.402957 0.567089
vn 0.718356 -0.402957 0.567089
vn 0.557343 -0.468403 0.685542
vn 0.943757 -0.180605 0.276956
vn 0.970457 0.216082 0.107342
vn 0.591728 0.799538 0.102937
vn 0.779990 0.620692 0.079732
vn -0.818968 0.410416 0.401062
vn -0.820904 0.349085 0.451948
vn -0.970012 0.148466 0.192442
vn -0.970012 0.148466 -0.192442
vn -0.818968 0.410416 -0.401062
vn -0.820904 0.349085 -0.451948
vn 0.679323 0.524849 -0.512887
vn 0.818968 0.410416 -0.401062
vn 0.820904 0.349085 -0.451948
vn 0.680769 0.448873 -0.578849
vn 0.970012 0.148466 -0.192442
vn 0.935489 -0.238925 -0.260338
vn 0.531213 -0.579792 -0.617782
vn 0.698517 -0.494480 -0.517266
vn -0.718356 -0.402957 -0.567089
vn -0.943757 -0.180605 -0.276956
vn -0.956774 -0.088470 0.277050
vn -0.755071 -0.250969 0.605708
vn 0.755071 -0.250969 0.605708
vn 0.595142 -0.280752 0.752984
vn 0.956774 -0.088470 0.277050
vn 0.818968 0.410416 0.401062
vn 0.679323 0.524849 0.512888
vn -0.819046 0.205075 0.535825
vn -0.969196 0.087210 0.230333
vn -0.969196 0.087210 -0.230333
vn -0.819046 0.205075 -0.535825
vn 0.819046 0.205075 -0.535825
vn 0.673448 0.272783 -0.687065
vn 0.969196 0.087210 -0.230333
vn -0.755071 -0.250969 -0.605709
vn -0.956774 -0.088470 -0.277050
vn -0.965651 0.004212 0.259808
vn -0.795221 -0.024162 0.605838
vn 0.795221 -0.024162 0.605838
vn 0.644435 -0.011730 0.764569
vn 0.965651 0.004212 0.259808
vn 0.965651 0.004212 -0.259808
vn 0.644435 -0.011730 -0.764569
vn 0.795221 -0.024162 -0.605838
vn -0.795221 -0.024162 -0.605838
vn -0.965651 0.004212 -0.259808
s 1
g pCube1
usemtl initialShadingGroup
f 14/105/1 13/67/2 9/92/3 8/102/4
s 2
f 7/65/5 15/14/6 14/105/7 8/101/8
f 17/106/9 16/8/10 10/6/11 11/104/12
s 4
f 12/79/13 18/78/14 17/106/15 11/103/16
s 1
f 26/109/17 25/13/18 3/66/19 2/98/20
s 6
f 1/3/21 27/20/22 26/109/23 2/97/24
f 29/110/25 28/11/26 4/64/27 5/100/28
s 4
f 6/7/29 30/22/30 29/110/31 5/99/32
f 93/40/33 92/131/34 116/139/35 115/53/36
s 2
f 92/131/37 91/54/38 117/2/39 116/139/40
s 4
f 105/83/41 104/135/42 134/145/43 133/85/44
s 12
f 104/135/45 103/60/46 135/87/47 134/145/48
s 2
f 126/1/49 145/149/50 146/150/51 121/55/52
s 6
f 1/3/21 151/155/53 152/156/54 27/20/22
s 12
f 129/4/55 156/160/56 157/161/57 142/86/58
f 162/166/59 163/167/60 7/65/61 34/12/62
s 4
f 6/7/29 12/79/13 33/80/63 30/22/30
s 2
f 163/167/64 164/168/65 15/14/6 7/65/5
s 4
f 6/7/29 21/9/66 18/78/14 12/79/13
s 16
f 22/10/67 150/154/68 151/155/69 1/3/70
s 1
f 9/92/3 13/67/2 24/19/71 3/66/19
f 3/66/19 25/13/18 36/91/72 9/92/3
s 2
f 15/14/6 164/168/65 165/169/73 39/26/74
s 4
f 21/9/66 45/16/75 42/77/76 18/78/14
s 17
f 149/153/77 150/154/78 22/10/79 46/18/80
s 1
f 48/31/81 24/19/71 13/67/2 37/68/82
s 18
f 27/20/83 152/156/84 153/157/85 51/32/86
s 4
f 54/34/87 30/22/30 33/80/63 57/81/88
s 12
f 161/165/89 162/166/59 34/12/62 58/24/90
s 1
f 25/13/18 49/25/91 60/90/92 36/91/72
s 2
f 39/26/74 165/169/73 166/170/93 63/38/94
s 4
f 45/16/75 69/28/95 66/76/96 42/77/76
s 17
f 148/152/97 149/153/77 46/18/80 70/30/98
s 1
f 72/43/99 48/31/81 37/68/82 61/69/100
s 18
f 51/32/86 153/157/85 154/158/101 75/44/102
s 4
f 78/46/103 54/34/87 57/81/88 81/82/104
s 12
f 160/164/105 161/165/89 58/24/90 82/36/106
s 1
f 49/25/91 73/37/107 84/89/108 60/90/92
s 2
f 63/38/94 166/170/93 167/171/109 87/50/110
s 4
f 69/28/95 93/40/33 90/75/111 66/76/96
s 2
f 147/151/112 148/152/113 70/30/114 94/42/115
s 1
f 96/56/116 72/43/99 61/69/100 85/70/117
s 12
f 75/44/118 154/158/119 155/159/120 99/57/121
s 4
f 102/59/122 78/46/103 81/82/104 105/83/41
s 12
f 159/163/123 160/164/105 82/36/106 106/48/124
s 1
f 73/37/107 97/49/125 108/88/126 84/89/108
s 2
f 87/50/110 167/171/109 168/172/127 111/73/128
s 4
f 93/40/33 115/53/36 120/52/129 114/93/130 90/75/111
s 2
f 146/150/51 147/151/112 94/42/115 121/55/52
s 1
f 124/71/131 123/94/132 96/56/116 85/70/117 109/72/133
s 12
f 99/57/121 155/159/120 156/160/56 129/4/55
s 4
f 136/84/134 132/95/135 102/59/122 105/83/41 133/85/44
s 12
f 158/162/136 159/163/123 106/48/124 139/61/137
s 1
f 97/49/125 127/63/138 144/62/139 141/96/140 108/88/126
s 2
f 111/73/128 168/172/127 145/149/50 126/1/49
s 12
f 142/86/58 157/161/57 158/162/136 139/61/137
s 1
f 23/108/141 2/98/142 3/66/19 24/19/71
s 16
f 22/10/67 1/3/70 2/97/143 23/108/144
s 1
f 35/112/145 8/102/4 9/92/3 36/91/72
s 12
f 34/12/62 7/65/61 8/101/146 35/112/147
s 1
f 13/67/2 14/105/1 38/113/148 37/68/82
s 2
f 14/105/7 15/14/6 39/26/74 38/113/149
f 16/8/10 17/106/9 41/114/150 40/15/151
s 4
f 17/106/15 18/78/14 42/77/76 41/114/152
f 5/99/153 20/107/154 21/9/66 6/7/29
s 16
f 4/64/155 19/17/156 20/107/157 5/100/158
s 17
f 22/10/79 23/108/159 47/116/160 46/18/80
s 1
f 23/108/141 24/19/71 48/31/81 47/116/161
f 25/13/18 26/109/17 50/117/162 49/25/91
s 18
f 26/109/163 27/20/83 51/32/86 50/117/164
f 28/11/165 29/110/166 53/118/167 52/21/168
s 4
f 29/110/31 30/22/30 54/34/87 53/118/169
f 11/103/16 32/111/170 33/80/63 12/79/13
s 12
f 10/6/171 31/23/172 32/111/173 11/104/174
f 34/12/62 35/112/147 59/120/175 58/24/90
s 1
f 35/112/145 36/91/72 60/90/92 59/120/176
f 37/68/82 38/113/148 62/121/177 61/69/100
s 2
f 38/113/149 39/26/74 63/38/94 62/121/178
f 40/15/151 41/114/150 65/122/179 64/27/180
s 4
f 41/114/152 42/77/76 66/76/96 65/122/181
f 21/9/66 20/107/154 44/115/182 45/16/75
s 17
f 20/107/183 19/17/184 43/29/185 44/115/186
f 46/18/80 47/116/160 71/124/187 70/30/98
s 1
f 47/116/161 48/31/81 72/43/99 71/124/188
f 49/25/91 50/117/162 74/125/189 73/37/107
s 18
f 50/117/164 51/32/86 75/44/102 74/125/190
f 52/21/168 53/118/167 77/126/191 76/33/192
s 4
f 53/118/169 54/34/87 78/46/103 77/126/193
f 33/80/63 32/111/170 56/119/194 57/81/88
s 12
f 32/111/173 31/23/172 55/35/195 56/119/196
f 58/24/90 59/120/175 83/128/197 82/36/106
s 1
f 59/120/176 60/90/92 84/89/108 83/128/198
f 61/69/100 62/121/177 86/129/199 85/70/117
s 2
f 62/121/178 63/38/94 87/50/110 86/129/200
f 64/27/180 65/122/179 89/130/201 88/39/202
s 4
f 65/122/181 66/76/96 90/75/111 89/130/203
f 45/16/75 44/115/182 68/123/204 69/28/95
s 17
f 44/115/186 43/29/185 67/41/205 68/123/206
s 2
f 70/30/114 71/124/207 95/132/208 94/42/115
s 1
f 71/124/188 72/43/99 96/56/116 95/132/209
f 73/37/107 74/125/189 98/133/210 97/49/125
s 12
f 74/125/211 75/44/118 99/57/121 98/133/212
f 76/33/213 77/126/214 101/134/215 100/45/216
s 4
f 77/126/193 78/46/103 102/59/122 101/134/217
f 57/81/88 56/119/194 80/127/218 81/82/104
s 12
f 56/119/196 55/35/195 79/47/219 80/127/220
f 82/36/106 83/128/197 107/136/221 106/48/124
s 1
f 83/128/198 84/89/108 108/88/126 107/136/222
f 85/70/117 86/129/199 110/137/223 109/72/133
s 2
f 86/129/200 87/50/110 111/73/128 110/137/224
f 88/39/202 89/130/201 113/138/225 112/51/226
s 4
f 89/130/203 90/75/111 114/93/130 113/138/227
f 69/28/95 68/123/204 92/131/34 93/40/33
s 2
f 68/123/228 67/41/229 91/54/38 92/131/37
f 94/42/115 95/132/208 122/141/230 121/55/52
s 1
f 95/132/209 96/56/116 123/94/132 122/141/231
f 97/49/125 98/133/210 128/143/232 127/63/138
s 12
f 98/133/212 99/57/121 129/4/55 128/143/233
f 100/45/216 101/134/215 131/144/234 130/58/235
s 4
f 101/134/217 102/59/122 132/95/135 131/144/236
f 81/82/104 80/127/218 104/135/42 105/83/41
s 12
f 80/127/220 79/47/219 103/60/46 104/135/45
f 106/48/124 107/136/221 140/147/237 139/61/137
s 1
f 107/136/222 108/88/126 141/96/140 140/147/238
f 109/72/133 110/137/223 125/142/239 124/71/131
s 2
f 110/137/224 111/73/128 126/1/49 125/142/240
f 112/51/226 113/138/225 119/140/241 118/74/242
s 4
f 113/138/227 114/93/130 120/52/129 119/140/243
f 115/53/36 116/139/35 119/140/243 120/52/129
s 2
f 116/139/40 117/2/39 118/74/242 119/140/241
f 121/55/52 122/141/230 125/142/240 126/1/49
s 1
f 122/141/231 123/94/132 124/71/131 125/142/239
s 4
f 133/85/44 134/145/43 137/146/244 136/84/134
s 12
f 134/145/48 135/87/47 138/5/245 137/146/246
f 130/58/235 131/144/234 137/146/246 138/5/245
s 4
f 131/144/236 132/95/135 136/84/134 137/146/244
s 12
f 139/61/137 140/147/237 143/148/247 142/86/58
s 1
f 140/147/238 141/96/140 144/62/139 143/148/248
f 127/63/138 128/143/232 143/148/248 144/62/139
s 12
f 128/143/233 129/4/55 142/86/58 143/148/247
s 2
f 146/150/51 145/149/50 118/74/242 117/2/39
f 91/54/38 147/151/112 146/150/51 117/2/39
f 67/41/229 148/152/113 147/151/112 91/54/38
s 17
f 43/29/185 149/153/77 148/152/97 67/41/205
f 19/17/184 150/154/78 149/153/77 43/29/185
s 16
f 151/155/69 150/154/68 19/17/156 4/64/155
s 6
f 152/156/54 151/155/53 4/64/27 28/11/26
s 18
f 153/157/85 152/156/84 28/11/165 52/21/168
f 154/158/101 153/157/85 52/21/168 76/33/192
s 12
f 155/159/120 154/158/119 76/33/213 100/45/216
f 156/160/56 155/159/120 100/45/216 130/58/235
f 157/161/57 156/160/56 130/58/235 138/5/245
f 158/162/136 157/161/57 138/5/245 135/87/47
f 103/60/46 159/163/123 158/162/136 135/87/47
f 79/47/219 160/164/105 159/163/123 103/60/46
f 55/35/195 161/165/89 160/164/105 79/47/219
f 31/23/172 162/166/59 161/165/89 55/35/195
f 10/6/171 163/167/60 162/166/59 31/23/172
s 2
f 10/6/11 16/8/10 164/168/65 163/167/64
f 165/169/73 164/168/65 16/8/10 40/15/151
f 166/170/93 165/169/73 40/15/151 64/27/180
f 167/171/109 166/170/93 64/27/180 88/39/202
f 168/172/127 167/171/109 88/39/202 112/51/226
f 145/149/50 168/172/127 112/51/226 118/74/242
